<?xml version="1.0" encoding="UTF-8" standalone="no"?>
<!DOCTYPE svg PUBLIC "-//W3C//DTD SVG 1.1//EN" "http://www.w3.org/Graphics/SVG/1.1/DTD/svg11.dtd">
<svg width="100%" height="100%" viewBox="0 0 3024 4032" version="1.1" xmlns="http://www.w3.org/2000/svg" xmlns:xlink="http://www.w3.org/1999/xlink" xml:space="preserve" xmlns:serif="http://www.serif.com/" style="fill-rule:evenodd;clip-rule:evenodd;stroke-linecap:round;stroke-linejoin:round;stroke-miterlimit:1.5;">
    <g id="Слой4">
        <rect x="-132.848" y="-252.381" width="3319.6" height="4564.57"/>
    </g>
    <g id="Слой1">
        <path d="M1813.45,1817.48C1762.46,1829.29 1494.6,1939.65 1469.6,2019.93C1444.61,2100.2 1547.78,2198.15 1637.56,2196.51C1727.34,2194.88 1983.06,2099.66 2050.01,2060.01C2116.97,2020.35 2157.09,1875.89 2125.75,1847.79C2094.41,1819.7 1876.83,1802.8 1813.45,1817.48Z" style="fill:rgb(231,154,0);stroke:black;stroke-width:6px;"/>
        <g transform="matrix(1.17396,0,0,1.20965,-534.435,-331.206)">
            <path d="M2933.24,1443.45C2919.41,1487.27 2885.3,1578.76 2846.32,1632.79C2897.32,1652.18 2967.54,1686.04 3034,1743.14C3078.02,1780.96 3135.61,1563.2 3097.34,1539.13C3070.1,1522 2947.08,1399.63 2933.24,1443.45Z" style="fill:rgb(252,194,73);stroke:black;stroke-width:5.03px;"/>
        </g>
        <g transform="matrix(1,0,0,1,152.621,77.814)">
            <path d="M910.608,1885.4C767.478,1880.83 -5.507,1974.39 -111.104,1663.22C-216.701,1352.05 -259.595,1180.2 18.763,1201.34C84.707,1206.35 237.688,1321.93 381.948,1353.25C713.878,1237.28 932.337,1414.62 1026.51,1631.12C1445.94,1636.72 1501.59,1905.58 1549.83,2019.11C1264.43,1760.13 1078.46,1753.36 910.608,1885.4Z" style="fill:rgb(209,114,45);stroke:black;stroke-width:6px;"/>
        </g>
        <g transform="matrix(1,0,0,1,122.769,66.8799)">
            <path d="M1579.68,2030.05C1529.39,1917.6 1224.2,1650.27 940.46,1896.34C1200.76,1952.77 1249.2,1965.14 1352.62,2032.4C1451.96,2097.01 1464.97,2050.99 1579.68,2030.05Z" style="fill:rgb(214,93,23);stroke:black;stroke-width:6px;"/>
        </g>
        <path d="M780.045,1780.11C669.037,1808.44 382.175,1821.33 211.228,1760.46C318.388,1787.13 593.762,1801.84 671.646,1758.73C464.522,1715.56 210.061,1613.13 13.318,1428.55C96.751,1506.6 465.416,1738.48 667.789,1711.71C660.033,1663.46 483.049,1532.86 333.95,1464.89C451.268,1486.05 909.9,1755.31 1089.44,1815.54C985.734,1812.75 616.918,1624.76 780.045,1780.11Z" style="fill:rgb(187,94,40);"/>
        <g transform="matrix(0.604685,0.0135063,-0.0124704,0.558305,588.018,838.199)">
            <path d="M1132.41,1797.97C955.148,1700.43 743.485,1614.7 665.073,1591.72C662.381,1590.93 666.314,1583.39 666.314,1583.39C666.314,1583.39 521.117,1534.83 545.625,1539.11C570.133,1543.39 813.364,1609.07 813.364,1609.07C813.364,1609.07 820.109,1596.16 825.933,1596.79C835.768,1597.85 874.524,1620.36 872.373,1615.42C870.221,1610.48 798.062,1562.57 813.023,1567.12C827.984,1571.67 941.304,1628.76 962.138,1642.74C982.972,1656.72 967.394,1675.45 1010.62,1683.85C1050.79,1691.66 1132.09,1745.03 1207.45,1796.12C1169.58,1790.65 1138.6,1801.37 1132.41,1797.97Z" style="fill:rgb(134,35,38);"/>
        </g>
        <g transform="matrix(1,0,0,1,80.0847,85.9037)">
            <path d="M964.961,1863.63C915.718,1844.4 895.873,1841.23 871.278,1833.39C846.683,1825.56 908.059,1818.15 912.103,1820.22C916.146,1822.29 820.171,1796.31 804.818,1790.74C789.464,1785.17 826.942,1771.05 836.486,1773.1C846.029,1775.15 781.422,1744.87 768.061,1741.74C754.7,1738.62 799.31,1723.57 809.412,1721.08C819.514,1718.59 722.095,1679.47 708.053,1674.58C694.011,1669.68 708.381,1652.25 715.632,1652.42C722.883,1652.6 1030.34,1765.99 1064.91,1807.59C1028.81,1825.44 993.082,1833.08 964.961,1863.63Z" style="fill:rgb(156,60,50);"/>
        </g>
        <path d="M2060.47,1808.17C2212.54,1401.53 2140.14,1249.98 2267.63,999.868C2335.2,867.304 2475.53,766.667 2441.3,716.729C2413.65,676.39 2309.08,754.948 2241.01,625.573C2202.21,551.847 1903.46,540.806 1790.23,735.169C1677,929.531 1424.78,1572.92 1743.31,1807.27C1958.35,1965.49 2026.67,1898.55 2060.47,1808.17Z" style="fill:rgb(205,106,33);stroke:black;stroke-width:6px;"/>
        <g transform="matrix(1,0,0,1,-0.0397299,-0.917493)">
            <path d="M2065.15,1882.18C2123.45,1818.5 2393.67,1523.27 2584.68,1532.36C2726.72,1539.12 2814.09,1403.62 3009.96,1473.15C3072.52,1495.35 2990.96,1366.18 2970.58,1312.59C2950.2,1259 2834.72,1055.51 2597.56,1123.45C2376.53,1186.78 2260.1,1325.73 2177.92,1524.58C2146.21,1601.3 2006.85,1945.85 2065.15,1882.18Z" style="fill:rgb(198,103,27);stroke:black;stroke-width:6px;"/>
        </g>
        <g transform="matrix(1.31102,0,0,1.05406,-643.129,-99.4271)">
            <path d="M2069.45,1885.24C2069.45,1885.24 2266.07,1599.79 2299.15,1577.44C2289.36,1563.92 2294.22,1563.7 2296.15,1559.58C2310.74,1540.73 2395.37,1473.12 2395.37,1473.12C2395.37,1473.12 2310.92,1535.5 2286.37,1544.33C2273.16,1577.11 2069.45,1885.24 2069.45,1885.24Z" style="fill:rgb(229,152,56);"/>
        </g>
        <g transform="matrix(1,0,0,1,-28.0181,-28.9843)">
            <path d="M1949.84,2302.43C1988.99,2361.43 2240.76,2764.74 2278.93,2791.96C2281.86,2754.75 2294.85,2731.23 2305.76,2701.83C2236.91,2569.88 2052.75,2286.35 2033.31,2248.91C2008.35,2279.31 1984.91,2291.29 1949.84,2302.43Z" style="fill:rgb(186,211,131);stroke:black;stroke-width:6px;"/>
        </g>
        <path d="M1678.45,2203.94C1694.45,2260.17 1874.36,2309.31 1923.27,2297.35C1972.18,2285.39 2008.72,2260.37 2020.89,2234.99C2033.07,2209.61 1975.68,2061.24 1930.76,2059.19C1885.85,2057.15 1666.02,2160.24 1678.45,2203.94Z" style="fill:rgb(247,213,135);stroke:black;stroke-width:6px;"/>
        <g transform="matrix(1,0,0,1,-27.2115,-10.5841)">
            <path d="M1378.97,2063.3C1200.17,2023.25 993.537,2143.37 920.498,2447.24C847.287,2751.83 921.635,3331.44 1118.42,3385.48C1225.38,3414.85 1180.3,3364.51 1307.21,3423.45C1381.99,3458.17 1495.26,3171.93 1573.55,2959.42C1647.66,2758.22 1696.47,2347.79 1794.21,2151.22C1850.08,2038.87 1557.77,2103.35 1378.97,2063.3Z" style="fill:rgb(206,107,34);stroke:black;stroke-width:6px;"/>
        </g>
        <path d="M1820.26,2084.91C2260.62,2268.31 2381.26,2818.87 2977.65,2851.29C3323.09,2870.07 3076.46,2483.76 3012.67,2399.92C2948.88,2316.08 2522.23,1816.62 2102.57,1931.32C1970.99,1967.28 1764.46,2061.67 1820.26,2084.91Z" style="fill:rgb(207,108,35);stroke:black;stroke-width:6px;"/>
        <path d="M2088.49,1905.17C2445.06,1820.22 2825.45,2123.26 3035.41,2371.46C3280.42,2661.1 3342.64,2401.64 3354.39,2315.78C3373.92,2173.01 3238.94,1931.63 3030.18,1753.54C2832.14,1584.58 2457.09,1505.14 2282.58,1601.64C2153.44,1673.07 1985.15,1929.79 2088.49,1905.17Z" style="fill:rgb(208,94,22);stroke:black;stroke-width:6px;"/>
        <path d="M875.435,1077.96C861.188,1135.98 903.879,1396.02 1010.86,1409.21C1117.84,1422.39 1304.55,1073.15 1392.53,1009.72C1480.51,946.281 889.681,1019.94 875.435,1077.96Z" style="fill:rgb(212,140,78);stroke:black;stroke-width:6px;"/>
        <path d="M1568.75,1881.1C1485.42,1784.55 1130.21,1220.76 890.397,1065.97C822.171,1021.94 1251.99,941.16 1400.67,984.691C1617.06,1048.05 1792.24,1643.16 1837.84,1766.07C1883.44,1888.97 1652.08,1977.65 1568.75,1881.1Z" style="fill:rgb(205,118,36);stroke:black;stroke-width:6px;"/>
        <g transform="matrix(0.974046,-0.345476,0.235677,0.664476,-534.943,1268.76)">
            <path d="M1882.37,1896.78C1883.61,1524.8 1954.57,1302.43 1911.37,1088.8C1920.92,1145.6 1920.1,1312.64 1883.48,1469.78C1871.96,1440.55 1840.29,1241.58 1840.29,1241.58C1840.29,1241.58 1864.16,1346.71 1856.12,1476.28C1844.56,1388.1 1798.16,1292.21 1794.1,1298.02C1794.1,1298.02 1837.37,1377.71 1829.48,1466.76C1819.93,1455.17 1782.7,1386.67 1782.7,1386.67C1782.7,1386.67 1820.96,1455.18 1815.84,1483.73C1794.73,1476.48 1748.12,1425.04 1748.12,1425.04C1748.12,1425.04 1796.04,1479.8 1784.94,1493.75C1775.95,1497.2 1732.59,1475.69 1732.59,1475.69C1732.59,1475.69 1842.52,1561.22 1882.37,1896.78Z" style="fill:rgb(247,174,32);"/>
        </g>
        <g transform="matrix(0.630876,-0.775883,0.775883,0.630876,-859.408,2141.84)">
            <path d="M2089.79,1487.54C2172.06,1402.42 2257.65,1072.48 2206.91,885.242C2227.41,1076.15 2169.82,1230.7 2129.74,1260.83C2136.07,1207.72 2180.95,1061.78 2149.99,980.307C2162.5,1087.16 2083.85,1250.08 2083.85,1250.08C2083.85,1250.08 2138.8,1051.97 2106.86,968.072C2131.51,1047.19 2058.85,1200.45 2058.85,1200.45C2058.85,1200.45 2080.04,959.271 2056.04,873.532C2074,978.853 1986.08,1247.54 1965.25,1508.73C1986,1416.58 1987.38,1392.18 2011.31,1443.44C2027.35,1426.05 2030.04,1384.56 2046.06,1391.3C2062.18,1398.08 2071.64,1459.69 2055.83,1514.79C2091.63,1430.27 2087.28,1363.56 2088.96,1371.55C2100.87,1428.08 2093.79,1462.12 2089.79,1487.54Z" style="fill:rgb(184,81,58);"/>
        </g>
        <path d="M1661.12,2042.76C1612.05,1980.44 1393.77,1630.24 1483.06,1368.63C1572.35,1107.03 1641.32,977.593 1697.4,920.727C1753.49,863.862 1687.98,740.313 1715.15,787.82C1742.32,835.327 1745.1,902.743 1746.19,930.447C1747.28,958.151 1672.67,959.907 1647.32,1030.99C1621.98,1102.07 1468.9,1357.63 1511.32,1559.86C1553.74,1762.09 1618.86,1930.74 1684.93,1997.77C1751,2064.81 1710.19,2105.07 1661.12,2042.76Z" style="fill:rgb(230,139,0);stroke:black;stroke-width:6px;"/>
        <path d="M1755.41,2021.91C1711.3,1981.68 1599.32,1719.76 1551.24,1519.17C1510.88,1350.81 1506.12,1116.16 1511.61,1041.89C1515.83,984.906 1541.49,949.647 1471.41,883.296C1445.1,858.386 1512.35,802.954 1519.85,852.691C1533.08,940.431 1589.13,863.448 1539.25,1018.99C1510.82,1107.65 1546.55,1364.97 1580.84,1516.48C1616.39,1673.56 1749.46,1945.69 1771.32,1979.19C1793.18,2012.7 1799.51,2062.15 1755.41,2021.91Z" style="fill:rgb(230,139,0);stroke:black;stroke-width:6px;"/>
        <path d="M1831.13,1993.66C1803.11,1925.85 1723.66,1685.79 1646.58,1539.73C1633.29,1514.56 1612.05,1478.01 1586.31,1438.45C1527.27,1347.72 1444.6,1241.14 1380.06,1219.59C1330.44,1203.02 1412.14,1183.8 1439.52,1199.38C1466.9,1214.96 1449.19,1158.98 1429.51,1154.72C1409.83,1150.45 1270.19,1212.03 1262.47,1240.79C1254.75,1269.55 1316.93,1217.46 1351.35,1237.72C1404.86,1269.21 1504.46,1272.41 1641.89,1610.31C1707.03,1770.48 1786.1,1933.27 1802.05,1976.71C1818,2020.14 1859.15,2061.47 1831.13,1993.66Z" style="fill:rgb(230,139,0);stroke:black;stroke-width:6px;"/>
        <g transform="matrix(-0.104486,-0.554397,0.583284,-0.10993,794.495,3002.68)">
            <path d="M1836.53,1081.68C1880.4,1032.88 2133.06,666.111 2327.18,398.896C2124,701.542 1888.19,1046.59 1835.82,1113.76C1837.46,1100.83 1837.86,1089.71 1836.53,1081.68Z" style="fill:rgb(247,197,110);"/>
        </g>
    </g>
    <g id="Слой3">
        <g transform="matrix(1,0,0,1,-2.06592,-1.97249)">
            <path d="M1263.74,1248.33C1258.84,1223.04 1369.53,1168.56 1427.97,1155.95C1439.52,1153.46 1454.22,1179.21 1452.46,1199.59C1435.73,1201.88 1401.63,1169.85 1348.47,1216.62C1331.48,1231.56 1299.06,1237.91 1263.74,1248.33Z" style="fill:rgb(10,6,2);stroke:black;stroke-width:6px;"/>
        </g>
        <path d="M1516.49,946.383C1502.51,911.834 1485.48,895.34 1471.74,880.137C1453.53,859.991 1494.91,826.134 1507.94,835.024C1520.96,843.914 1519.09,870.716 1529.57,886.42C1540.05,902.123 1551.75,906.044 1557.26,916.059C1562.78,926.075 1522.76,961.898 1516.49,946.383Z" style="fill:rgb(10,6,2);stroke:black;stroke-width:6px;"/>
        <path d="M1744.19,936.187C1751.95,851.177 1712.43,787.492 1712.43,787.492C1712.43,787.492 1740.39,862.503 1706.77,911.451C1721.38,910.391 1736.54,914.515 1744.19,936.187Z" style="fill:rgb(10,6,2);stroke:black;stroke-width:6px;"/>
    </g>
    <g id="Слой2">
        <g transform="matrix(1,0,0,0.869118,0,166.89)">
            <path d="M1997,1927.25C2034.31,1548.87 2079.75,1382.28 2079.75,1382.28C2079.75,1382.28 2047.61,1505.55 2030.35,1516.68C2025.13,1405.23 2084.28,1275.12 2084.28,1275.12C2084.28,1275.12 2043.53,1351.7 2010.39,1428.61C1999.81,1411.76 2017.39,1331.44 2028.06,1309.02C2038.73,1286.61 2004.62,1338.1 1980.24,1438.75C1970.25,1430.5 1977.99,1333.98 1977.99,1333.98C1977.99,1333.98 1942.22,1530.32 1947.94,1664.35C1953.66,1798.39 1985.93,2039.52 1997,1927.25Z" style="fill:rgb(248,180,0);"/>
        </g>
        <g transform="matrix(0.966398,0,0,1.10901,59.4275,-90.0015)">
            <path d="M1935.84,1300.73C2052.32,847.598 2200.83,733.049 2296.63,694.977C2210.31,750.21 2075.01,819.902 1959.11,1300.73C1952.02,1300.7 1942.61,1300.78 1935.84,1300.73Z" style="fill:rgb(216,176,120);"/>
        </g>
        <path d="M2079.93,1497.25C2193.78,1326.94 2144.9,1069.66 2300.08,908.545C2162.91,1042.63 2148.64,1188.27 2126.52,1221.89C2120,1141.17 2140.39,1129.25 2154.82,1037.48C2128.38,1112.5 2102.32,1144.32 2102.32,1144.32C2102.32,1144.32 2067.63,1108.2 2138.6,1002.93C2209.57,897.66 2075.56,1074.79 2075.56,1074.79C2075.56,1074.79 2084.13,991.706 2122.71,908.545C2065.41,979.827 2035.8,1092.67 2031.72,1097.87C2027.64,1103.07 2001.25,1263.55 1995.67,1291.59C1990.08,1319.63 2072.31,1215.55 2026.37,1354.99C2054.15,1304.45 2078.82,1239.26 2094.84,1246C2110.96,1252.77 2056.63,1381.79 2055.83,1398.55C2055.04,1415.3 2086.05,1330.09 2090.07,1346.54C2094.09,1362.99 2083.93,1471.82 2079.93,1497.25Z" style="fill:rgb(184,81,58);"/>
        <g transform="matrix(1,0,0,1,-136.848,4.16836)">
            <path d="M1443.49,2082.53C1376.1,2081 1378.19,2070.31 1331.73,2102.9C1285.28,2135.49 1272.12,2160.44 1252.67,2175.82C1233.21,2191.19 1326.05,2134.95 1318.84,2156.74C1311.04,2180.32 1216.33,2290.14 1205.84,2317.3C1195.36,2344.46 1342.21,2161.32 1346.46,2173.16C1350.71,2185 1224.56,2386.44 1231.35,2388.34C1238.14,2390.24 1382.99,2165.9 1387.18,2184.57C1391.37,2203.24 1292.65,2307.2 1256.5,2500.36C1368.88,2243.7 1455.33,2166.89 1511.36,2129.28C1542.77,2108.2 1516.52,2115.92 1492.21,2116.91C1467.9,2117.89 1430.6,2120.44 1442.49,2109.37C1454.38,2098.31 1510.89,2084.06 1443.49,2082.53Z" style="fill:rgb(226,129,96);"/>
        </g>
        <g transform="matrix(0.934657,-0.355551,0.355551,0.934657,-846.837,1207.2)">
            <path d="M1618.28,1881.71C1422.81,2073.31 1424.24,2001.57 1521.63,1844.94C1366.34,1945.24 1206.71,2224.75 1172.4,2277.27C1138.87,2328.57 1310.54,2114.47 1310.12,2145.7C1309.7,2176.94 1193.88,2315.55 1169.88,2464.67C1223.84,2303.13 1335.04,2170.53 1332.95,2183.43C1329.1,2207.12 1238.3,2334.39 1161.07,2768.02C1260.19,2365.53 1342.08,2189.94 1386.84,2177.05C1358.26,2258.62 1335.45,2296.67 1333.32,2471.15C1368.6,2266.23 1459.43,2062.06 1618.28,1881.71Z" style="fill:rgb(239,128,55);"/>
        </g>
        <g transform="matrix(1,0,0,1,-36.307,5.32356)">
            <path d="M1602.81,2126.23C1563.96,2149.26 1450.68,2158.45 1395.13,2306.23C1339.59,2454.01 1442.86,2219.42 1484.17,2215.47C1465.89,2260.53 1396.2,2331.03 1402.51,2391.82C1455.76,2310.67 1491.01,2239.97 1534.86,2212.85C1585.54,2198.63 1518.47,2303.59 1534.43,2308.45C1550.4,2313.31 1641.69,2193.45 1630.65,2242.02C1619.61,2290.59 1571.93,2409.9 1577.19,2414.4C1582.45,2418.9 1634.17,2323.42 1662.23,2269.02C1690.28,2214.62 1729.12,2207.52 1684.47,2329.85C1641.41,2447.83 1662.02,2430.98 1713.56,2306.6C1747.83,2223.9 1760,2105.28 1722.93,2134.78C1685.87,2164.27 1641.66,2103.21 1602.81,2126.23Z" style="fill:rgb(212,114,73);"/>
        </g>
        <path d="M2059.44,1673.4C2105.57,1548.74 2146.73,1492.62 2145.95,1376.32C2113.16,1476.33 2074.89,1526.05 2074.89,1526.05C2074.89,1526.05 2072.99,1560.09 2059.44,1673.4Z" style="fill:rgb(196,75,57);"/>
        <g transform="matrix(1,0,0,1,29.9895,35.7724)">
            <path d="M1876.92,2052.99C1886.12,2055.48 1893.38,2058.79 1905.98,2062.42C1918.58,2066.04 1919.51,2054.75 1919.51,2054.75C1919.51,2054.75 1927.19,2049.02 1936.97,2053.62C1946.74,2058.22 1966.06,2070.49 1976.54,2075.11C1987.02,2079.73 1967.42,2055.79 1967.42,2055.79C1967.42,2055.79 1985.71,2058.3 1999.27,2058.84C2012.84,2059.39 2020.78,2052.01 2020.78,2052.01C2020.78,2052.01 2030.1,2061.02 2050.6,2057.86C2071.11,2054.7 2084.89,2051.64 2084.89,2051.64C2084.89,2051.64 2091.81,2050.22 2094.37,2045.22C2096.93,2040.22 2074.95,2034.5 2074.95,2034.5C2074.95,2034.5 2079.04,2021.77 2122.4,2043.51C2165.76,2065.26 2207.49,2068.74 2207.49,2068.74C2207.49,2068.74 2232.04,2072.81 2246.03,2074.9C2260.02,2076.99 2183.7,2048.53 2176.68,2038.7C2169.67,2028.88 2185.67,2039.73 2222.26,2043.1C2258.84,2046.48 2258.91,2045.71 2285.86,2063.5C2312.82,2081.29 2272.53,2051.52 2315.75,2062.88C2358.97,2074.25 2340.69,2056.72 2380.33,2074.48C2419.98,2092.24 2410.15,2085.45 2436.18,2088.26C2462.22,2091.07 2416.44,2060.35 2461.04,2078.05C2505.63,2095.76 2432.32,2055.25 2475.23,2063.97C2518.15,2072.69 2472.07,2054.1 2523.66,2068.48C2575.25,2082.86 2553.57,2072.3 2578.88,2070.34C2604.19,2068.38 2399.44,1899.59 2124.84,1922.47C2083.63,1925.9 2096.81,1946.62 2096.81,1946.62C2096.81,1946.62 2113.51,1961.93 2104.32,1961.69C2095.12,1961.45 2074.72,1966.39 2062.79,1966.48C2050.87,1966.56 2050.86,1974.96 2047.46,1981.18C2044.06,1987.41 2040.37,1992.61 2025.19,1997.25C2010.02,2001.88 1997.46,2002.22 1985.02,2007.16C1972.57,2012.09 1979.51,2017.13 1961.57,2024.4C1943.64,2031.67 1922.94,2040.56 1912.44,2041.86C1901.93,2043.15 1867.73,2050.5 1876.92,2052.99Z" style="fill:rgb(131,39,52);"/>
        </g>
        <g transform="matrix(1,0,0,1,-10.3468,-21.8011)">
            <path d="M2164.59,1770.44C2202.01,1733.15 2241.73,1696.67 2295.68,1686.98C2274.21,1702.04 2272.89,1719.52 2272.89,1719.52C2272.89,1719.52 2326.05,1702.9 2343.34,1707.06C2309.34,1721.14 2304.87,1743.58 2304.87,1743.58C2304.87,1743.58 2350.33,1723.33 2374.33,1736.09C2347.21,1749.64 2345.33,1769.8 2345.33,1769.8C2345.33,1769.8 2415.11,1759.69 2442.94,1774.18C2428.53,1777.15 2418.7,1792.03 2418.7,1792.03C2457.71,1781.88 2547.11,1808.91 2551.76,1811.06C2556.41,1813.21 2465.14,1804 2446.61,1804.94C2445.4,1808.53 2440.76,1817.92 2439.67,1820.04C2487.56,1819.47 2557.39,1850.41 2578.81,1860.89C2586.13,1864.47 2576.36,1882.73 2568.22,1882.91C2552.19,1883.27 2491.21,1865.05 2482.65,1863.05C2474.1,1861.04 2470.82,1874.89 2470.82,1874.89C2470.82,1874.89 2549.29,1898.57 2562.89,1911.94C2570.29,1919.22 2544.45,1961.32 2544.45,1961.32C2544.45,1961.32 2341.07,1867.87 2189.23,1882.91C2138.3,1887.95 2208.76,1870.53 2215.49,1863.05C2221.01,1856.91 2206.77,1849.32 2215.49,1845.16C2224.21,1841.01 2212,1826.3 2202.78,1829.13C2193.57,1831.97 2212.14,1819.58 2220.69,1813.97C2229.23,1808.36 2232.76,1801.94 2226.73,1798.87C2220.69,1795.8 2179.24,1825.09 2172.84,1820.49C2166.44,1815.89 2170.34,1802.8 2172.91,1797.54C2175.48,1792.28 2129.52,1805.4 2164.59,1770.44Z" style="fill:rgb(153,47,53);"/>
        </g>
        <g transform="matrix(0.607402,0.653694,-0.594824,0.552701,2203.24,-109.808)">
            <path d="M1867.51,1783.23C2005.16,1691.17 2341.92,1547.13 2694.8,1558.49C2357.82,1585.85 2158.02,1725.14 2111.74,1777.45C2065.46,1829.77 2206.25,1901.5 2417.12,1872.4C2239.77,1966.35 2156.47,1949.68 2063.73,1936.15C2262.96,2034.07 2654.05,2039.08 2891.17,1799.9C2627.65,2133.84 1891.83,1988.65 1719.61,2079.81C1698.32,2091.08 1743.19,2014.44 1690.77,2013.54C1731.19,1974.05 1769.15,1921.35 1753.8,1902.16C1810.51,1889.35 1883.61,1819.68 1908.72,1786.41C1909.79,1784.99 1887.48,1778.48 1867.51,1783.23Z" style="fill:rgb(229,152,56);"/>
        </g>
        <g transform="matrix(1,0,0,1,-6.53169,-1.78876)">
            <path d="M1754.55,1436C1729.95,1404 1724.98,1347.71 1717.46,1311.83C1709.94,1275.95 1744.81,1341.71 1744.81,1341.71C1744.81,1341.71 1749.79,1256.95 1747.88,1242.84C1745.96,1228.74 1780.83,1261.4 1780.83,1261.4C1780.83,1261.4 1779.96,1176.71 1791.01,1147.8C1806.58,1179.73 1818.59,1189.49 1831.08,1174.58C1842.53,1160.92 1845.98,1078.62 1851.63,1059.75C1859.92,1095.04 1879.31,1097.06 1879.31,1097.06C1879.31,1097.06 1884.86,1046.5 1893,1009.94C1902.79,1052.5 1924.04,1036.12 1924.04,1036.12L1983.06,953.581C1983.06,953.581 1964.48,1034.26 2007.57,979.916C2020.9,963.103 2036.85,946.578 2059.04,935.232C2010.47,1007.77 1956.38,1204.99 1945.56,1261.4C1934.95,1316.69 1927.7,1220.03 1921.83,1202.24C1915.96,1184.45 1902.4,1221.6 1893.98,1263.03C1885.57,1304.45 1873.32,1282 1864.09,1262.36C1854.85,1242.71 1848.88,1285.61 1840.94,1313.08C1833.01,1340.55 1839.56,1330.98 1821.4,1311.86C1803.24,1292.74 1811.65,1296.01 1805.39,1343.77C1799.13,1391.52 1794.56,1397.42 1778.8,1392.1C1763.03,1386.77 1779.16,1468 1754.55,1436Z" style="fill:rgb(134,61,49);"/>
        </g>
        <g transform="matrix(0.86415,0,0,0.702667,308.995,471.802)">
            <path d="M2068.55,1850.46C2093.11,1795.56 2232.1,1575.03 2274.27,1506.15C2227.55,1555.14 2186.07,1577.02 2163.45,1580.52C2147.25,1638 2043.46,1906.56 2068.55,1850.46Z" style="fill:rgb(252,186,28);"/>
        </g>
        <path d="M2297.59,1528.9C2411.2,1459.45 2698.47,1212.03 2997.93,1395.06C2734.5,1183.43 2369.94,1465.78 2291.94,1510.33C2292.99,1513.4 2296.64,1525.02 2297.59,1528.9Z" style="fill:rgb(236,179,76);"/>
        <g transform="matrix(0.893568,0,0,0.821438,204.599,271.15)">
            <path d="M1929.42,1923.68C1878.43,1701.27 1906.73,1432.5 1921.78,1349.91C1936.83,1267.32 1883.23,1498.83 1883.23,1498.83L1914.39,1233.49C1914.39,1233.49 1887.82,1376.65 1856.12,1476.28C1866.71,1400.69 1869.13,1298.76 1865.07,1304.57C1865.07,1304.57 1852.75,1406.19 1829.48,1466.76C1819.93,1455.17 1815.1,1383.33 1815.1,1383.33C1815.1,1383.33 1816,1449.09 1810.89,1477.63C1789.77,1470.38 1779.73,1425.17 1779.73,1425.17C1779.73,1425.17 1791.95,1472.99 1780.85,1486.94C1771.86,1490.39 1754.34,1453.59 1754.34,1453.59C1754.34,1453.59 1771.98,1571.2 1813.56,1683.24C1859.8,1807.88 1930.43,1928.1 1929.42,1923.68Z" style="fill:rgb(247,174,32);"/>
        </g>
        <g transform="matrix(1.17071,0,0,1.05841,-521.163,-98.8683)">
            <path d="M2199.97,1877.1C2192.06,1884.93 2171.58,1919.25 2179.61,1944.44C2611.5,1790.84 3047.08,2322.97 3109.07,2575.19C3108.26,2568.45 3083.63,2390.43 3083.29,2373.05C3019.68,2311.81 2653.92,1776.94 2199.97,1877.1Z" style="fill:rgb(248,204,153);"/>
        </g>
        <g transform="matrix(-0.621053,-0.0375184,0.0399376,-0.661098,2576.41,2989.44)">
            <path d="M1757.8,1262.82C1993.15,1244.89 2180.31,892.592 2185.92,587.941C2199.83,842.935 2093.91,1180.62 1860.69,1268.05C1834.43,1269.09 1781.35,1270.9 1757.8,1262.82Z" style="fill:rgb(247,197,110);"/>
        </g>
        <g transform="matrix(0.654532,0,0,0.701204,860.577,748.846)">
            <path d="M1199.14,1854.11C1195.36,1854.81 1191.57,1855.59 1187.7,1856.09C1026.6,1877.11 852.383,1847.63 746.029,1806.61C853.975,1830.66 945.344,1850.46 1121.74,1845.41C1038.69,1841.32 526.496,1759.99 382.981,1721.08C704.882,1782.11 830.742,1794.8 918.093,1795.39C848.481,1732.93 492.235,1659.67 492.235,1659.67C492.235,1659.67 865.472,1724.6 1087.77,1815.17C986.186,1722.8 804.57,1649.54 565.779,1627.56C666.507,1626.11 975.482,1667.19 1199.14,1854.11Z" style="fill:rgb(205,76,0);"/>
        </g>
        <g transform="matrix(0.932598,0,0,0.964075,135.051,96.5535)">
            <path d="M1941.94,2283.7C1953.73,2282.25 1960.5,2277.97 1970.24,2272.81C1992.18,2306.24 2255.87,2699.61 2268.99,2717.76C2266.25,2725.5 2264.18,2735.5 2261.55,2745.85C2231.98,2724.7 1958.29,2309.09 1941.94,2283.7Z" style="fill:rgb(60,109,82);"/>
        </g>
    </g>
</svg>
